<svg width="495" height="270" viewBox="0 0 495 270" fill="none" xmlns="http://www.w3.org/2000/svg">
<path d="M177.062 241.883C186.043 244.776 195.26 247.943 204.66 251.412C198.068 249.463 191.281 247.246 184.522 244.947C182.08 244.117 179.704 243.094 177.062 241.883Z" fill="#99737B"/>
<path d="M204.863 251.725C204.781 251.855 204.922 252.045 205.329 252.25C205.249 252.256 205.078 252.095 204.863 251.725Z" fill="#99737B"/>
<path d="M68.2148 243.499C68.676 242.859 69.5327 241.849 70.4599 241.779C76.9638 241.291 83.4824 240.997 90.4514 240.671C86.6988 241.342 82.4995 242.05 78.2802 242.604C75.081 243.025 71.8562 243.251 68.2148 243.499Z" fill="#D4BA6C"/>
<path d="M452.561 72.2159C444.258 69.47 436.022 66.3503 427.501 63.1111C432.532 64.416 437.921 65.6178 443.135 67.3456C446.434 68.4387 449.472 70.3164 452.561 72.2159Z" fill="#99737B"/>
<path d="M447.344 106.152C449.726 104.908 452.262 103.118 455.075 102.079C460.685 100.007 466.447 98.3489 472.553 96.5769C464.516 99.738 456.07 102.842 447.344 106.152Z" fill="#99737B"/>
<path d="M418.187 116.681C423.332 114.587 428.873 112.463 434.699 110.508C429.517 112.669 424.05 114.659 418.187 116.681Z" fill="#99737B"/>
<path d="M411.385 119.092C413.109 118.362 415.11 117.429 417.489 116.578C415.798 117.403 413.73 118.146 411.385 119.092Z" fill="#99737B"/>
<path d="M56.1279 80.7014C54.7272 76.253 58.4144 75.3473 61.4145 73.6458C61.8006 74.2874 61.7676 74.9512 61.871 75.5931C63.0329 82.8085 63.0386 82.8076 56.1279 80.7014Z" fill="#E1AB5D"/>
<path d="M57.732 97.3272C56.4586 95.5825 55.1382 93.4619 53.8212 90.9646C55.1114 92.7091 56.3982 94.8302 57.732 97.3272Z" fill="#E1AB5D"/>
<path d="M62.1028 73.5553C62.2664 72.9934 62.737 72.3737 63.5161 71.6914C63.353 72.2517 62.8814 72.8746 62.1028 73.5553Z" fill="#E1AB5D"/>
<path d="M176.827 241.609C156.822 234.478 136.81 227.368 116.827 220.176C115.366 219.65 114.12 218.527 112.899 216.837C112.93 208.222 112.835 200.451 112.826 192.216C112.529 176.852 112.145 161.952 111.766 147.052C111.711 144.915 111.223 142.466 114.711 142.741C125.287 146.73 135.863 150.718 147.089 154.982C160.66 160.023 173.581 164.786 186.502 169.55C192.9 171.607 199.339 173.544 205.686 175.749C214.856 178.934 223.96 182.312 233.66 185.972C237.216 187.35 240.14 188.667 243.205 189.303C247.205 190.133 251.553 191.522 255.331 190.712C262.606 189.152 269.586 186.218 276.689 183.854C276.689 183.854 276.883 183.59 277.252 183.426C278.277 183.168 278.931 183.074 279.586 182.98C279.586 182.98 279.898 182.647 280.319 182.451C281.381 182.17 282.022 182.085 282.662 182.001C286.245 180.548 289.776 178.95 293.418 177.669C307.738 172.633 322.08 167.659 336.437 162.731C356.112 155.977 375.802 149.27 395.497 142.577C401.064 140.685 399.369 145.099 399.45 148.292C399.243 153.37 399.478 157.8 399.506 162.231C399.623 180.811 399.678 199.391 399.755 217.972C399.755 217.972 399.863 218.223 399.469 218.35C397.981 219.223 396.888 219.969 395.795 220.716C395.795 220.716 395.803 220.648 395.422 220.585C385.1 224.093 375.158 227.665 365.217 231.237C353.251 235.486 341.291 239.754 329.317 243.98C310.176 250.736 291.03 257.478 271.874 264.191C268.142 265.499 264.293 266.491 260.608 267.913C256.583 269.466 252.683 269.653 248.617 268.15C234.502 262.931 220.361 257.78 205.704 252.375C204.922 252.045 204.781 251.855 204.758 251.58C204.758 251.58 204.863 251.606 204.67 251.358C195.26 247.943 186.043 244.776 176.827 241.609Z" fill="#5D1525"/>
<path d="M367.792 134.437C359.469 137.556 351.182 140.775 342.816 143.773C323.077 150.845 303.304 157.82 283.539 164.818C275.837 167.545 268.112 170.209 260.408 172.932C255.261 174.752 250.457 174.868 245.046 172.793C230.388 167.172 215.382 162.466 200.63 157.078C180.759 149.821 161.018 142.211 141.183 134.854C121.994 127.735 102.757 120.746 83.0979 113.326C81.6931 111.86 80.7313 110.769 79.7835 109.663C79.7976 109.649 79.8209 109.617 80.2055 109.64C85.2137 111.712 87.7775 109.569 89.287 105.357C90.4968 101.982 91.661 98.59 93.0122 94.7291C93.1694 94.7291 94.156 94.786 95.1342 94.7194C99.7429 94.4057 104.421 94.4563 108.941 93.6386C117.972 92.0047 121.974 93.2734 125.867 99.827C125.994 100.041 126.458 100.054 127.136 100.289C127.805 99.6513 129.213 98.9562 129.297 98.127C130.016 91.0266 135.613 91.6553 140.329 91.0331C145.191 90.3916 151.166 93.2292 151.657 96.7766C152.239 100.99 154.971 100.646 157.833 100.63C161.299 100.61 163.098 99.0578 162.82 95.418C162.577 92.254 164.168 91.0916 167.109 91.9711C170.468 92.9753 172.487 91.5807 174.227 88.646C178.694 89.313 182.749 89.979 187.051 90.8679C188.466 90.6101 189.633 90.1294 191.177 89.648C192.303 89.6476 193.055 89.6478 193.921 89.9962C196.293 91.1108 198.548 91.8772 200.877 93.0237C201.537 94.7681 202.6 96.1216 202.632 97.4988C202.808 105.157 202.892 112.828 202.599 120.478C202.547 121.843 200.799 123.915 199.451 124.292C196.825 125.027 194.69 125.426 194.792 128.869C194.888 132.113 197.085 132.208 199.393 132.969C200.701 133.401 201.479 135.44 202.496 136.755C201.149 137.714 199.92 139.15 198.427 139.519C196.213 140.067 193.748 139.579 191.514 140.083C190.254 140.367 188.627 141.589 188.325 142.702C188.099 143.54 189.481 145.361 190.565 145.893C193.025 147.101 195.69 148.009 198.368 148.625C201.932 149.445 205.492 149.635 206.875 154.191C207.223 155.338 210.271 155.885 212.167 156.291C215.332 156.967 219.134 156.403 221.654 157.981C226.54 161.038 230.026 159.121 233.969 156.596C238.051 153.981 236.369 150.754 235.706 147.306C235.446 145.955 236.477 143.416 237.586 142.928C240.425 141.676 250.959 150.351 250.546 153.485C250.177 156.279 249.06 158.966 248.519 161.748C248.288 162.936 248.343 164.411 248.859 165.467C250.087 167.978 260.207 168.881 262.447 167.163C263.716 166.189 265.584 165.692 267.225 165.569C271.096 165.28 274.875 165.149 276.253 159.703C274.448 159.893 273.047 160.107 271.64 160.174C268.326 160.334 264.992 160.656 261.705 160.401C260.727 160.325 259.393 158.657 259.15 157.52C258.997 156.807 260.586 154.927 261.372 154.939C265.787 155.01 270.476 154.659 274.544 156.025C281.908 158.497 285.486 158.007 290.845 152.031C291.596 151.194 293.131 150.905 294.361 150.68C298.495 149.924 302.656 149.312 307.047 148.855C308.114 149.823 308.939 150.579 309.764 151.336C310.144 150.789 310.524 150.241 310.905 149.694C309.538 149.011 308.171 148.328 306.671 147.352C306.626 145.922 306.715 144.783 307.162 143.625C308.282 142.618 309.043 141.631 310.082 140.439C315.103 139.892 319.848 139.572 324.589 139.202C330.765 138.719 337.086 140.766 342.761 135.278C345.107 133.009 350.692 134.088 354.978 133.928C356.6 134.252 358.047 134.292 359.495 134.334C362.26 134.414 365.067 131.137 367.792 134.437ZM92.3004 110.319C92.6461 109.746 92.9919 109.173 93.3376 108.6C92.7869 108.451 92.2362 108.301 91.6856 108.151C91.6939 108.822 91.7023 109.493 92.3004 110.319ZM96.3809 110.414C96.6296 110.589 96.8783 110.764 97.127 110.939C96.9679 110.68 96.8088 110.421 96.3809 110.414Z" fill="#5D1525"/>
<path d="M322.492 23.9279C346.233 32.8296 369.974 41.7313 394.343 50.9038C397.346 52.1641 399.721 53.1536 401.828 54.4537C396.949 55.0177 392.348 55.5904 388.513 51.8687C387.334 50.7245 385.392 50.3669 383.458 49.5973C382.014 49.2455 380.91 48.9456 379.472 48.4866C378.543 48.0341 377.94 47.4754 377.357 47.497C375.595 47.5622 373.84 47.8524 372.083 48.0549C372.993 49.7512 373.703 51.6076 374.883 53.0889C375.705 54.1206 377.173 54.6377 379.245 55.9503C376.276 57.1569 374.201 58.7692 372.215 58.6654C365.886 58.3347 359.59 57.3677 353.282 56.6424C351.978 56.4924 349.997 56.8088 349.482 56.0868C346.114 51.3695 341.263 52.8556 336.703 52.3107C334.72 50.5265 332.885 49.0074 330.938 47.6494C329.441 46.6056 327.803 45.7646 326.228 44.8335C325.421 46.4406 324.475 47.9972 323.863 49.6754C323.542 50.5553 323.804 51.6483 323.492 52.8424C322.392 54.9593 320.923 56.8814 320.93 58.7983C320.96 67.3572 321.212 75.9277 321.777 84.4679C322.171 90.4106 321.432 91.7077 315.606 91.5963C312.667 91.5401 309.737 90.9783 306.803 90.1764C306.802 81.7164 306.934 73.7209 306.691 65.7369C306.641 64.0885 305.312 61.1505 304.377 61.0696C297.487 60.4735 290.484 59.9258 283.659 63.3258C282.53 62.6169 281.179 61.0774 279.745 60.9959C275.414 60.7498 274.537 58.3711 274.729 54.6782C274.804 53.23 273.962 51.7393 274.01 50.2834C274.169 45.3834 271.28 44.4699 267.239 44.6224C262.973 44.7833 258.697 44.6774 254.43 44.8229C241.88 45.2509 229.319 42.3909 216.74 45.2933C213.386 46.0671 210.959 46.4617 210.065 50.4458C209.758 51.8149 206.813 52.6103 205.051 53.6292C203.726 54.395 202.082 54.8271 201.074 55.8805C197.785 59.3176 194.685 62.9393 191.583 66.5504C188.193 70.4961 182.945 69.6569 178.363 71.6417C175.884 71.6436 173.843 71.6446 171.602 71.5138C171.155 71.1775 170.954 70.9328 170.895 70.306C173.106 68.6685 175.226 67.373 178.207 65.5517C176.22 64.7 174.862 64.2993 173.712 63.5698C172.721 62.9404 171.966 61.9368 171.107 61.0986C171.94 60.3816 172.668 59.361 173.634 59.0245C174.841 58.604 176.243 58.6734 177.563 58.6593C181.712 58.6147 185.865 58.7452 190.009 58.5857C193.296 58.4592 195.352 57.6102 193.841 53.3219C192.851 50.5144 193.408 47.1785 193.164 44.0878C192.756 38.9368 192.261 33.7927 192.229 28.6454C197.163 27.6954 201.635 26.2773 206.188 25.9302C210.569 25.5961 212.071 23.6577 212.154 19.7417C218.423 21.7698 224.23 24.7607 230.287 25.4056C241.153 26.5624 252.167 26.4821 263.122 26.5966C274.164 26.7122 272.588 27.8287 272.891 17.1674C272.944 15.3082 274.14 13.4816 275.181 11.5787C278.33 10.8823 281.107 10.247 283.884 9.61182C286.487 10.6276 289.09 11.6433 292.373 12.9246C294.451 13.3517 295.849 13.5132 297.246 13.6747C297.246 13.6747 297.465 13.5878 297.671 13.9653C303.998 16.4564 310.12 18.5699 316.242 20.6834C316.242 20.6834 316.431 20.595 316.621 20.9735C318.499 22.1228 320.187 22.8935 321.876 23.6641C321.876 23.6641 321.784 23.7121 321.872 23.6531C322.119 23.7335 322.297 23.8448 322.492 23.9279ZM282.584 19.9116C282.278 18.8513 281.971 17.7909 281.665 16.7305C280.41 17.458 278.233 18.0394 278.09 18.9429C277.779 20.9076 277.92 24.3915 278.925 24.8252C281.242 25.825 284.184 25.376 286.86 25.5142C284.932 23.4445 283.577 21.9889 282.584 19.9116ZM343.279 35.9321C341.732 36.8536 340.184 37.7751 338.637 38.6966C338.978 39.1859 339.32 39.6753 339.661 40.1646C342.433 40.5512 345.644 41.4997 343.279 35.9321ZM343.482 43.3808C344.361 43.5875 345.239 43.7942 346.117 44.0009C346.196 43.5533 346.275 43.1057 346.354 42.6581C345.501 42.7296 344.647 42.801 343.482 43.3808ZM334.523 36.4366C334.2 35.6262 333.878 34.8157 333.555 34.0053C333.162 34.2109 332.769 34.4164 332.376 34.622C332.964 35.3797 333.552 36.1375 334.523 36.4366ZM326.912 28.3084L326.817 27.9917C326.817 27.9917 326.715 28.3074 326.912 28.3084Z" fill="#5C1525"/>
<path d="M452.495 72.5896C466.464 77.5165 480.434 82.4434 494.404 87.3703C494.429 87.9071 494.454 88.4439 494.48 88.9807C487.538 91.5128 480.597 94.0449 472.9 96.5485C466.447 98.3489 460.685 100.007 455.075 102.079C452.262 103.118 449.726 104.908 447.064 106.359C443.281 107.77 439.498 109.182 435.065 110.465C428.873 112.463 423.332 114.587 417.791 116.712C417.791 116.712 417.801 116.645 417.456 116.571C415.11 117.429 413.109 118.362 411.108 119.296C398.596 123.761 386.085 128.226 373.081 132.522C372.968 131.13 373.011 129.153 373.781 128.809C378.095 126.885 382.646 125.501 386.989 123.635C389.389 122.605 391.54 120.995 394.098 119.518C395.765 119.193 397.138 118.997 399.128 118.712C397.551 116.79 396.369 115.349 395.186 113.907C395.238 113.404 395.289 112.901 395.341 112.398C402.033 112.398 408.725 112.398 415.416 112.398C415.457 111.756 415.498 111.114 415.539 110.473C409.708 109.205 403.93 107.511 398.033 106.766C388.687 105.585 388.654 105.854 390.743 96.6938C390.817 96.371 390.698 95.9048 390.883 95.7234C391.948 94.6778 393.054 92.9234 394.192 92.8884C395.669 92.843 397.639 93.8298 398.573 95.0191C399.701 96.4549 399.966 98.5683 400.688 100.628C401.686 100.223 402.667 100.111 402.779 99.7376C404.65 93.5174 409.441 93.218 414.705 93.6128C417.127 93.7944 419.467 93.6017 419.767 90.2843C420.071 86.9271 418.307 85.1831 415.29 84.8462C412.327 84.5153 409.271 84.9588 406.322 84.5677C403.416 84.1823 399.087 84.0755 398.012 82.2759C394.637 76.6232 385.471 77.1307 384.715 69.108C384.512 66.9555 382.841 64.5422 383.465 62.8439C383.92 61.6056 386.985 61.0139 388.974 60.7148C393.376 60.0527 397.892 60.039 402.235 59.1474C403.63 58.8611 404.63 56.6512 406.181 55.3835C409.609 56.5196 412.668 57.5935 415.726 58.6674C419.324 59.9862 422.922 61.305 427.152 62.9272C436.022 66.3503 444.258 69.47 452.495 72.5896Z" fill="#5C1525"/>
<path d="M67.7867 243.434C67.0343 243.491 66.2818 243.547 65.0349 243.203C63.6901 242.367 62.8712 241.641 61.9844 241.546C56.1719 240.92 54.335 237.761 54.6924 232.056C55.3655 221.31 55.2362 210.515 55.8474 199.763C56.6359 185.893 57.4629 172.006 58.9525 158.2C60.1707 146.908 71.6426 141.03 79.4559 147.213C81.3325 148.698 83.776 149.466 85.9587 150.564C85.9587 150.564 85.8635 150.612 85.8454 150.929C86.4395 152.408 87.0518 153.569 87.664 154.73C87.664 154.73 87.7909 155.094 87.9008 155.521C88.2307 156.201 88.4506 156.455 88.6706 156.708C88.7211 157.099 88.7716 157.489 88.8036 158.644C89.1585 165.794 89.4102 172.19 89.9494 178.561C90.2917 182.605 91.0616 186.613 91.6397 190.636C91.6397 190.636 91.7967 191.037 91.7865 191.733C91.9199 199.052 91.9296 205.682 92.2389 212.298C92.6851 221.843 94.1637 231.416 90.852 240.77C90.852 240.77 90.8191 240.688 90.4077 240.664C83.4824 240.997 76.9639 241.291 70.46 241.779C69.5327 241.849 68.676 242.859 67.7867 243.434Z" fill="#D1A647"/>
<path d="M54.6659 102.656C45.2222 98.7433 35.7916 94.7989 26.3307 90.9285C18.5487 87.745 10.7254 84.6626 2.93826 81.4914C2.23804 81.2063 1.66943 80.5979 0 79.3831C5.34799 77.3297 9.78519 75.3373 14.3965 73.9057C34.2728 67.7348 54.2016 61.7331 74.1085 55.6607C90.6866 50.6038 107.264 45.544 123.835 40.4657C130.571 38.4014 137.292 36.285 144.768 34.0165C148.006 32.7905 150.496 31.7404 152.985 30.6902C152.985 30.6902 153.183 30.6008 153.656 30.6985C154.742 30.4252 155.355 30.0543 155.967 29.6833C155.967 29.6833 156.159 29.5904 156.71 29.7113C159.058 29.5635 160.856 29.2949 162.643 29.4355C161.074 34.9913 155.478 36.0006 152.372 35.7878C143.35 35.1694 136.269 40.3603 128.105 41.9304C125.551 42.4216 123.149 43.7468 120.592 44.1714C115.839 44.9604 111.033 45.3912 107.551 49.6431C107.303 49.6443 106.807 49.6468 106.606 49.777C106.152 50.1121 105.952 50.3591 105.803 50.8968C105.803 51.1454 105.803 51.6426 105.367 51.6434C102.805 51.4502 100.477 50.6093 98.596 51.1981C94.7907 52.3895 90.1998 53.5127 87.9183 56.2931C86.3351 58.2225 85.5074 60.7086 82.4165 61.5763C75.7684 60.5233 69.5355 59.7216 64.2454 64.428C66.394 64.8988 68.3956 64.354 70.4262 64.2054C72.3299 64.066 74.473 63.8401 76.1477 64.5316C82.3206 67.0805 89.2184 68.7993 91.9482 76.1324C92.1486 76.6705 92.9948 76.9338 93.4229 77.4271C96.3651 80.8177 99.429 77.8827 102.483 77.7538C108.912 77.4826 115.36 77.6571 121.801 78.0207C121.804 79.1367 121.806 79.8807 121.601 80.8088C120.871 81.1743 120.347 81.3557 119.597 81.3865C118.53 81.4236 117.689 81.6114 116.399 81.7408C113.574 81.948 111.199 82.2136 108.511 82.3135C107.093 82.3588 105.988 82.5696 104.492 82.7316C100.863 83.2506 97.6259 83.8185 94.4146 84.1377C93.8591 84.1282 93.2773 84.3673 92.3844 84.5409C90.0677 81.8075 88.062 79.1397 86.0004 76.1371C84.9505 74.6936 83.9564 73.5849 82.8033 72.1746C74.6756 66.0629 63.6377 66.1274 56.8972 72.0233C49.4391 78.547 47.9895 88.5188 53.0292 97.7358C53.8451 99.228 54.1336 101.008 54.6659 102.656Z" fill="#601825"/>
<path d="M66.7123 108.657C66.7123 108.657 66.2902 108.603 66.052 108.184C64.6145 106.062 63.494 104.296 62.1943 102.673C60.811 100.946 59.258 99.354 57.7321 97.3272C56.3983 94.8301 55.1114 92.709 53.8192 90.1894C54.4628 86.7628 55.1118 83.7348 56.128 80.7015C63.0386 82.8077 63.033 82.8086 61.871 75.5932C61.7677 74.9513 61.8007 74.2875 61.7814 73.6344C61.7924 73.6349 61.7958 73.6131 62.1028 73.5552C62.8814 72.8745 63.353 72.2516 64.1942 71.4641C67.6292 71.084 70.6946 70.8687 73.847 70.9692C76.6412 74.1391 79.4436 76.8177 83.8026 76.6332C83.8056 76.6393 83.8227 76.6401 83.8773 76.9957C85.8046 81.5158 87.6774 85.6804 89.4163 89.5471C93.5475 88.0556 97.5186 85.9686 101.717 85.2952C105.685 84.6585 109.892 85.5066 113.995 85.7017C113.982 86.3571 113.969 87.0125 113.956 87.6679C110.39 88.0339 106.788 88.2138 103.285 88.9032C102.463 89.0652 98.6065 87.9173 100.432 91.7313C98.109 92.101 96.0583 92.0119 94.165 92.5153C92.436 92.975 89.9391 93.684 89.4052 94.962C86.9968 100.726 82.8017 104.322 77.3775 106.986C76.5033 107.416 76.3658 109.345 75.715 110.967C75.2907 117.794 75.1443 124.241 74.7254 130.671C74.5949 132.673 73.7268 134.627 73.1964 136.604C72.5513 136.56 71.9062 136.517 71.2612 136.473C70.7708 134.705 69.9898 132.959 69.8542 131.163C69.6171 128.026 70.1496 124.803 69.681 121.719C69.0121 117.316 67.7316 113.007 66.7123 108.657Z" fill="#DEAA4E"/>
<path d="M274.809 11.6399C274.14 13.4816 272.944 15.3083 272.891 17.1674C272.588 27.8287 274.164 26.7122 263.122 26.5967C252.167 26.4821 241.153 26.5624 230.287 25.4056C224.23 24.7607 218.423 21.7698 211.819 19.8905C209.023 19.5137 206.912 19.0827 205.191 18.6469C209.228 17.981 213.203 17.7848 213.793 12.8164C215.196 12.4257 216.599 12.035 218.719 11.7835C222.25 11.4418 225.082 11.0457 227.874 10.4574C230.96 9.80674 234.086 8.15718 237.058 8.43078C241.099 8.8028 242.655 7.54866 242.798 3.79429C243.231 3.74207 243.664 3.68984 244.449 3.6379C244.801 3.63821 244.85 3.6912 244.774 4.05509C244.839 5.73572 244.823 8.15406 245.146 8.20008C248.673 8.70322 252.306 9.30751 255.804 8.92053C258.633 8.60748 259.306 6.24416 258.026 3.47596C259.034 3.31565 259.965 3.05216 260.578 3.3812C263.04 4.70248 265.404 6.20725 267.945 7.95474C268.501 13.0278 273.11 9.43493 274.809 11.6399Z" fill="#5B1424"/>
<path d="M393.803 119.646C391.54 120.995 389.389 122.605 386.989 123.635C382.646 125.501 378.095 126.885 373.781 128.809C373.011 129.153 372.968 131.13 372.76 132.598C371.45 133.407 369.97 133.972 368.141 134.487C365.067 131.137 362.26 134.414 359.495 134.334C358.047 134.292 356.6 134.252 354.978 133.491C354.818 123.913 354.816 123.935 363.465 124.597C365.112 124.723 366.833 124.85 368.417 124.504C369.543 124.259 371.404 123.185 371.378 122.543C371.216 118.471 371.211 114.198 369.845 110.472C369.366 109.165 365.201 108.797 362.697 108.723C354.827 108.488 354.823 108.621 355.185 100.479C358.676 100.091 361.788 99.8998 364.894 99.637C368.248 99.3534 370.492 100.122 371.317 104.025C371.622 105.466 374.064 107.414 375.578 107.456C379.775 107.573 381.726 109.272 382.939 113.248C383.487 115.041 386.118 116.198 387.979 117.843C387.953 119.025 387.753 120.009 387.478 121.353C389.486 120.708 391.145 120.176 393.053 119.644C393.47 119.645 393.637 119.646 393.803 119.646Z" fill="#601825"/>
<path d="M75.8877 110.581C76.3658 109.345 76.5033 107.415 77.3775 106.986C82.8017 104.322 86.9967 100.726 89.4051 94.9619C89.9391 93.684 92.436 92.975 94.165 92.5152C96.0583 92.0119 98.109 92.101 100.893 91.812C108.729 91.3015 115.762 90.9109 122.871 90.837C123.797 91.563 124.648 91.9723 125.5 92.3816C125.546 91.6957 125.592 91.0097 126.002 90.1339C134.161 89.1523 141.957 88.3606 150.103 87.6498C154.256 87.3267 158.059 86.9226 162.091 86.6481C162.803 86.9782 163.285 87.1787 163.875 87.7557C166.494 90.3781 168.618 90.6594 170.309 86.8066C171.658 86.6067 172.658 86.5582 173.699 87.0435C173.765 87.9331 173.79 88.289 173.816 88.645C172.487 91.5806 170.468 92.9752 167.109 91.971C164.168 91.0916 162.577 92.2539 162.82 95.4179C163.098 99.0578 161.299 100.61 157.833 100.63C154.971 100.646 152.239 100.99 151.657 96.7766C151.166 93.2291 145.191 90.3916 140.329 91.033C135.613 91.6552 130.016 91.0266 129.297 98.1269C129.213 98.9561 127.805 99.6513 127.136 100.289C126.458 100.054 125.994 100.041 125.867 99.8269C121.974 93.2733 117.972 92.0047 108.941 93.6385C104.421 94.4562 99.7429 94.4056 95.1342 94.7193C94.156 94.786 93.1694 94.729 93.0122 94.729C91.661 98.5899 90.4968 101.982 89.287 105.357C87.7775 109.569 85.2137 111.711 80.0827 109.492C79.3365 109.261 79.0978 109.202 78.8591 109.143C79.1626 109.321 79.466 109.499 79.7695 109.678C80.7313 110.769 81.6931 111.86 82.7261 113.254C81.0981 112.939 79.3991 112.321 77.2613 111.431C76.5108 110.967 76.1992 110.774 75.8877 110.581Z" fill="#601825"/>
<path d="M85.9031 150.211C83.7759 149.466 81.3324 148.698 79.4559 147.213C71.6425 141.03 60.1707 146.908 58.9524 158.2C57.4629 172.006 56.6359 185.893 55.8474 199.763C55.2362 210.515 55.3654 221.31 54.6923 232.056C54.3349 237.761 56.1719 240.92 61.9844 241.546C62.8711 241.641 63.69 242.367 64.6627 243.128C62.3526 243.274 59.9202 243.093 57.4877 242.912C53.9097 242.647 52.8507 240.165 52.8287 237.176C52.7354 224.518 52.3704 211.843 52.862 199.205C53.3848 185.76 54.7381 172.346 55.7763 158.922C56.3676 151.277 61.3127 144.501 67.4434 142.774C74.5954 140.759 81.0921 143.26 85.9031 150.211Z" fill="#C9AB66"/>
<path d="M57.7791 97.7031C59.258 99.354 60.8109 100.946 62.1943 102.673C63.4939 104.296 64.6145 106.062 65.8498 108.117C62.2673 106.739 58.6488 105.008 54.8481 102.967C54.1336 101.008 53.8451 99.228 53.0292 97.7358C47.9895 88.5188 49.4391 78.5469 56.8972 72.0233C63.6377 66.1274 74.6756 66.0629 82.7401 72.2394C82.8359 72.6057 82.7078 72.7333 82.3458 72.6414C79.2426 71.9175 76.5014 71.2854 73.7601 70.6534C70.6946 70.8687 67.6291 71.084 63.8856 71.5266C62.7369 72.3736 62.2663 72.9933 61.7958 73.6131C61.7958 73.6131 61.7924 73.6349 61.4255 73.6464C58.4144 75.3475 54.7272 76.2532 55.7608 80.7068C55.1117 83.7348 54.4628 86.7628 53.8158 90.566C55.1382 93.4619 56.4586 95.5825 57.7791 97.7031Z" fill="#C9AB66"/>
<path d="M213.476 12.7954C213.203 17.7848 209.228 17.981 204.856 18.7964C201.021 19.8491 197.912 20.7475 194.489 21.691C193.385 22.3722 192.594 23.0084 191.444 23.6459C189.99 23.9791 188.895 24.311 187.525 24.7731C186.434 25.4842 185.619 26.0651 184.431 26.7077C178.415 27.677 172.778 28.6475 167.115 29.4187C166.339 29.5244 165.428 28.6383 164.533 28.1582C164.487 28.105 164.577 27.9961 164.577 27.9961C176.192 24.2421 187.794 20.4481 199.428 16.7538C203.968 15.312 208.58 14.0942 213.476 12.7954Z" fill="#601825"/>
<path d="M75.7149 110.967C76.1992 110.774 76.5108 110.967 76.9151 111.433C76.6057 118.923 75.9681 126.139 75.8983 133.36C75.862 137.123 74.174 138.29 71.0649 137.516C69.7895 137.198 68.0208 135.491 67.9349 134.309C67.3367 126.083 67.1214 117.829 66.7478 109.121C67.7316 113.007 69.0121 117.316 69.6809 121.719C70.1495 124.803 69.617 128.026 69.8541 131.163C69.9898 132.959 70.7707 134.705 71.2612 136.473C71.9062 136.517 72.5513 136.56 73.1964 136.604C73.7268 134.627 74.5948 132.673 74.7253 130.671C75.1443 124.241 75.2907 117.794 75.7149 110.967Z" fill="#D4BA6C"/>
<path d="M267.803 7.64412C265.404 6.20716 263.04 4.70239 260.578 3.38111C259.965 3.05207 259.034 3.31556 257.603 3.47681C252.921 3.66165 248.885 3.67638 244.85 3.69111C244.85 3.69111 244.801 3.63812 244.776 3.61205C253.383 -2.7342 261.459 0.174625 269.379 5.48216C268.83 6.47621 268.317 7.06017 267.803 7.64412Z" fill="#5C1626"/>
<path d="M276.28 183.844C269.586 186.218 262.606 189.152 255.331 190.712C251.553 191.522 247.205 190.133 243.205 189.303C240.14 188.667 237.216 187.35 234.03 186.055C237.538 186.717 241.277 187.55 244.946 188.624C253.998 191.274 262.007 187.394 270.252 184.815C272.052 184.252 273.995 184.15 276.28 183.844Z" fill="#99737B"/>
<path d="M400.124 217.704C399.678 199.391 399.623 180.811 399.506 162.231C399.478 157.8 399.243 153.37 399.452 148.692C400.136 148.963 400.763 149.482 400.762 149.999C400.707 172.479 400.596 194.958 400.124 217.704Z" fill="#BA989F"/>
<path d="M114.591 142.341C111.223 142.466 111.711 144.915 111.766 147.052C112.145 161.952 112.529 176.852 112.63 192.215C112.348 192.68 111.955 192.686 111.955 192.686C111.436 175.816 110.916 158.946 110.387 141.755C112.246 141.839 113.359 141.889 114.591 142.341Z" fill="#99737B"/>
<path d="M91.2368 240.714C94.1637 231.416 92.685 221.843 92.2388 212.298C91.9295 205.682 91.9198 199.052 91.799 191.947C92.1523 191.977 92.7467 192.474 92.7737 193C93.1678 200.694 93.4591 208.392 93.8314 216.087C94.1237 222.131 94.8021 228.178 94.6655 234.209C94.6164 236.38 92.6908 238.509 91.2368 240.714Z" fill="#D4BA6C"/>
<path d="M186.568 169.178C173.581 164.786 160.66 160.023 147.467 155.112C151.812 156.178 156.519 157.122 161.023 158.661C169.238 161.468 177.336 164.616 185.466 167.666C185.933 167.841 186.249 168.416 186.568 169.178Z" fill="#99737B"/>
<path d="M242.439 3.90479C242.655 7.54859 241.099 8.80273 237.058 8.43071C234.086 8.15711 230.96 9.80667 227.874 10.4573C225.082 11.0457 222.25 11.4417 219.093 11.7682C226.527 9.08105 234.304 6.5482 242.439 3.90479Z" fill="#5C1626"/>
<path d="M365.562 231.226C375.158 227.665 385.1 224.093 395.456 220.592C392.845 221.846 389.855 223.13 386.788 224.191C379.848 226.591 372.871 228.88 365.562 231.226Z" fill="#99737B"/>
<path d="M267.945 7.95471C268.317 7.06022 268.83 6.47626 269.604 5.75024C274.37 6.75301 278.876 7.89782 283.633 9.32721C281.107 10.247 278.33 10.8823 275.181 11.5787C273.11 9.43488 268.501 13.0277 267.945 7.95471Z" fill="#601825"/>
<path d="M91.7019 190.171C91.0615 186.613 90.2916 182.605 89.9494 178.561C89.4102 172.19 89.1585 165.794 88.8068 158.94C89.8192 166.736 90.8628 174.995 91.7639 183.268C91.9949 185.389 91.7763 187.559 91.7019 190.171Z" fill="#D4BA6C"/>
<path d="M415.604 58.3193C412.668 57.5935 409.609 56.5196 405.897 55.2205C404.194 54.7112 403.146 54.4271 402.097 54.143C399.721 53.1535 397.346 52.1641 394.693 51.106C399.622 52.4254 404.861 53.7057 410.019 55.2576C411.938 55.8351 413.666 57.0481 415.604 58.3193Z" fill="#99737B"/>
<path d="M316.017 20.3535C310.12 18.5699 303.998 16.4564 297.779 14.0125C303.718 15.7959 309.755 17.9098 316.017 20.3535Z" fill="#99737B"/>
<path d="M111.908 193.15C111.955 192.686 112.348 192.68 112.544 192.68C112.835 200.451 112.93 208.222 112.945 216.48C112.507 214.303 111.916 211.647 111.839 208.975C111.692 203.859 111.837 198.735 111.908 193.15Z" fill="#BA989F"/>
<path d="M152.575 30.6619C150.496 31.7403 148.006 32.7905 145.106 33.8852C147.185 32.831 149.675 31.7323 152.575 30.6619Z" fill="#99737B"/>
<path d="M164.174 27.9587C164.577 27.9961 164.487 28.105 164.269 28.2033C163.584 28.5432 163.119 28.7847 162.653 29.0263C160.856 29.2949 159.058 29.5636 156.806 29.756C158.825 29.0937 161.298 28.5075 164.174 27.9587Z" fill="#99737B"/>
<path d="M321.721 23.3422C320.187 22.8934 318.499 22.1227 316.716 21.0168C318.27 21.4613 319.918 22.2409 321.721 23.3422Z" fill="#99737B"/>
<path d="M396.164 220.683C396.888 219.969 397.981 219.223 399.434 218.482C398.707 219.209 397.62 219.93 396.164 220.683Z" fill="#99737B"/>
<path d="M87.7378 154.376C87.0517 153.569 86.4395 152.408 85.8598 150.878C86.5321 151.68 87.1718 152.851 87.7378 154.376Z" fill="#C9AB66"/>
<path d="M297.015 13.3651C295.849 13.5131 294.451 13.3516 292.727 13.1078C293.862 13.0355 295.323 13.0455 297.015 13.3651Z" fill="#99737B"/>
<path d="M282.411 181.998C282.022 182.086 281.381 182.17 280.534 182.376C280.938 182.33 281.549 182.163 282.411 181.998Z" fill="#99737B"/>
<path d="M279.332 182.993C278.931 183.074 278.277 183.168 277.413 183.394C277.829 183.352 278.453 183.179 279.332 182.993Z" fill="#99737B"/>
<path d="M155.587 29.6665C155.355 30.0543 154.742 30.4252 153.756 30.7403C153.991 30.3396 154.599 29.9946 155.587 29.6665Z" fill="#99737B"/>
<path d="M322.296 23.8667C322.297 23.8448 322.119 23.7335 321.845 23.6091C321.73 23.6243 322.1 23.8054 322.296 23.8667Z" fill="#99737B"/>
<path d="M88.7046 156.418C88.4506 156.455 88.2307 156.201 87.9095 155.713C88.1183 155.696 88.4285 155.912 88.7046 156.418Z" fill="#D4BA6C"/>
<path d="M354.803 100.645C354.823 108.621 354.827 108.488 362.697 108.723C365.201 108.797 369.366 109.165 369.845 110.472C371.211 114.198 371.216 118.471 371.378 122.543C371.404 123.185 369.543 124.259 368.417 124.504C366.833 124.85 365.112 124.723 363.465 124.597C354.816 123.935 354.818 123.913 354.803 133.208C350.692 134.088 345.107 133.009 342.761 135.278C337.086 140.766 330.765 138.719 324.589 139.202C319.848 139.572 315.103 139.892 309.723 140.46C308.325 141.672 307.564 142.659 306.803 143.645C306.715 144.783 306.626 145.922 306.671 147.602C306.804 148.145 306.806 148.644 306.806 148.644C302.656 149.312 298.495 149.924 294.361 150.68C293.131 150.905 291.596 151.194 290.845 152.031C285.486 158.007 281.908 158.497 274.544 156.025C270.476 154.659 265.787 155.01 261.372 154.939C260.586 154.927 258.997 156.807 259.15 157.52C259.393 158.657 260.727 160.325 261.705 160.401C264.992 160.656 268.326 160.334 271.64 160.174C273.047 160.107 274.448 159.893 276.253 159.703C274.875 165.149 271.096 165.28 267.225 165.569C265.584 165.692 263.716 166.189 262.447 167.163C260.207 168.881 250.087 167.978 248.859 165.467C248.343 164.411 248.288 162.936 248.519 161.748C249.06 158.966 250.177 156.279 250.546 153.485C250.959 150.351 240.425 141.676 237.586 142.928C236.477 143.416 235.446 145.955 235.706 147.306C236.369 150.754 238.051 153.981 233.969 156.596C230.026 159.121 226.54 161.038 221.654 157.981C219.134 156.403 215.332 156.967 212.167 156.291C210.271 155.885 207.223 155.338 206.875 154.191C205.492 149.635 201.932 149.445 198.368 148.625C195.69 148.009 193.025 147.101 190.565 145.893C189.481 145.361 188.099 143.54 188.325 142.702C188.627 141.589 190.254 140.367 191.514 140.083C193.748 139.579 196.213 140.067 198.427 139.519C199.92 139.15 201.149 137.714 202.496 136.755C201.479 135.44 200.701 133.401 199.393 132.969C197.085 132.208 194.888 132.113 194.792 128.869C194.69 125.426 196.825 125.027 199.451 124.292C200.799 123.915 202.547 121.843 202.599 120.478C202.892 112.828 202.808 105.157 202.632 97.4988C202.6 96.1216 201.537 94.7681 201.283 93.0044C204.345 92.2852 207.074 91.9653 209.803 92.1115C209.808 96.2233 209.466 99.9172 209.963 103.495C210.209 105.266 211.758 107.989 213.134 108.274C219.102 109.512 219.142 113.018 218.417 117.925C218.07 120.274 219.321 123.189 220.639 125.37C222.263 128.055 224.711 130.242 226.803 133.079C228.117 140.354 223.031 140.019 218.52 140.409C216.276 140.581 214.267 140.862 212.411 141.554C212.168 141.645 212.313 144.142 212.962 145.015C215.238 148.072 223.673 147.07 226.048 143.382C227.528 142.293 228.705 140.872 230.008 140.746C234.534 140.309 236.32 138.011 236.177 133.583C239.034 132.373 242.926 131.829 243.73 129.959C245.837 125.053 248.963 125.342 253.018 126.147C256.441 126.827 259.465 125.206 259.56 121.769C259.754 114.74 259.105 107.688 258.803 100.201C258.803 97.387 258.803 95.0171 259.091 92.6048C259.853 92.2565 260.329 91.9506 261.2 91.6479C267.999 94.5822 274.402 94.6713 281.087 91.8825C282.848 92.2946 284.326 92.4692 286.272 92.6441C293.095 92.6446 299.449 92.6448 305.803 93.1096C305.803 94.0739 305.803 94.5736 305.803 95.0733C305.803 106.522 305.79 106.415 294.668 107.782C293.027 107.983 290.712 109.416 290.179 110.832C286.438 120.782 290.353 126.029 300.876 125.642C301.542 125.617 302.36 125.824 302.842 125.513C304.158 124.664 306.253 123.721 306.408 122.59C307.19 116.917 310.813 116.179 315.427 116.642C319.524 117.054 322.775 116.315 324.911 112.021C325.607 110.622 328.814 109.707 330.787 109.839C339.327 110.413 339.792 110.148 339.803 101.463C339.813 93.8354 344.699 90.8974 351.222 94.9702C352.931 96.0372 353.637 98.7098 354.803 100.645Z" fill="#5C1525"/>
<path d="M174.227 88.6459C173.79 88.289 173.765 87.9331 174.038 86.926C186.149 85.3391 197.961 84.4033 209.882 83.6203C210.275 83.6472 210.558 83.5214 211.205 83.2373C213.98 82.9726 216.392 82.8662 218.865 83.121C218.883 85.8694 218.841 88.2566 218.361 90.6437C215.885 90.6438 213.845 90.6441 211.647 90.3143C208.961 86.3617 204.712 85.5785 200.292 87.6197C198.253 88.5615 195.975 88.9879 193.806 89.648C193.055 89.6478 192.303 89.6475 190.817 89.6486C188.989 89.9817 187.896 90.3133 186.803 90.645C182.749 89.979 178.694 89.3129 174.227 88.6459Z" fill="#5B1223"/>
<path d="M193.921 89.9963C195.975 88.988 198.253 88.5616 200.292 87.6198C204.712 85.5786 208.961 86.3618 211.36 90.3562C210.755 91.0339 210.279 91.3397 209.803 91.6455C207.074 91.9654 204.345 92.2852 201.209 92.6244C198.548 91.8773 196.293 91.1108 193.921 89.9963Z" fill="#601825"/>
<path d="M307.047 148.855C306.806 148.644 306.804 148.145 306.804 147.895C308.171 148.328 309.538 149.011 310.905 149.693C310.524 150.241 310.144 150.789 309.764 151.336C308.939 150.579 308.114 149.823 307.047 148.855Z" fill="#601825"/>
<path d="M92.0055 110.242C91.7023 109.493 91.6939 108.822 91.6856 108.151C92.2362 108.301 92.7869 108.451 93.3376 108.6C92.9919 109.173 92.6461 109.746 92.0055 110.242Z" fill="#601825"/>
<path d="M307.162 143.625C307.564 142.659 308.325 141.672 309.445 140.666C309.043 141.631 308.282 142.618 307.162 143.625Z" fill="#601825"/>
<path d="M187.051 90.8679C187.896 90.3134 188.989 89.9818 190.442 89.6494C189.633 90.1294 188.466 90.6101 187.051 90.8679Z" fill="#601825"/>
<path d="M96.5153 110.288C96.8088 110.421 96.9679 110.68 97.127 110.939C96.8783 110.764 96.6296 110.589 96.5153 110.288Z" fill="#601825"/>
<path d="M355.185 100.479C353.637 98.7098 352.931 96.0372 351.222 94.9702C344.699 90.8975 339.813 93.8354 339.803 101.463C339.792 110.148 339.327 110.413 330.788 109.839C328.814 109.707 325.607 110.622 324.911 112.021C322.775 116.315 319.524 117.054 315.427 116.642C310.813 116.179 307.19 116.917 306.408 122.59C306.253 123.721 304.159 124.664 302.842 125.513C302.36 125.825 301.542 125.617 300.876 125.642C290.353 126.029 286.438 120.782 290.179 110.832C290.712 109.416 293.027 107.983 294.668 107.782C305.79 106.415 305.803 106.522 305.803 95.0733C305.803 94.5736 305.803 94.0739 305.922 92.8563C306.295 91.6406 306.549 91.1429 306.803 90.6451C309.737 90.9782 312.667 91.54 315.607 91.5962C321.432 91.7076 322.171 90.4105 321.777 84.4679C321.212 75.9276 320.96 67.3571 320.93 58.7983C320.923 56.8814 322.392 54.9593 323.87 53.0069C328.64 52.8644 332.722 52.7548 336.803 52.6451C341.263 52.8556 346.114 51.3694 349.482 56.0868C349.997 56.8088 351.978 56.4923 353.282 56.6423C359.59 57.3677 365.886 58.3347 372.215 58.6654C374.201 58.7691 376.276 57.1569 379.245 55.9502C377.173 54.6376 375.705 54.1206 374.883 53.0889C373.703 51.6075 372.993 49.7511 372.083 48.0548C373.841 47.8523 375.595 47.5622 377.357 47.4969C377.94 47.4754 378.543 48.034 379.494 48.8444C380.955 52.3529 382.274 52.411 383.799 49.6491C385.392 50.3669 387.334 50.7244 388.513 51.8687C392.348 55.5904 396.949 55.0177 401.828 54.4537C403.146 54.4271 404.194 54.7112 405.527 55.1583C404.63 56.6512 403.63 58.8611 402.235 59.1474C397.892 60.039 393.376 60.0527 388.974 60.7148C386.985 61.014 383.92 61.6056 383.465 62.8439C382.841 64.5422 384.512 66.9555 384.715 69.1081C385.471 77.1308 394.637 76.6233 398.012 82.276C399.087 84.0755 403.416 84.1823 406.322 84.5677C409.271 84.9589 412.327 84.5153 415.29 84.8463C418.307 85.1831 420.071 86.9271 419.767 90.2844C419.467 93.6017 417.127 93.7944 414.705 93.6128C409.441 93.2181 404.65 93.5174 402.779 99.7376C402.667 100.111 401.686 100.223 400.688 100.628C399.966 98.5684 399.701 96.455 398.573 95.0191C397.639 93.8299 395.669 92.843 394.192 92.8884C393.054 92.9235 391.948 94.6778 390.883 95.7235C390.698 95.9048 390.817 96.3711 390.743 96.6938C388.654 105.854 388.687 105.585 398.033 106.766C403.93 107.511 409.708 109.205 415.539 110.473C415.498 111.114 415.457 111.756 415.416 112.398C408.725 112.398 402.033 112.398 395.341 112.398C395.289 112.901 395.238 113.404 395.186 113.908C396.369 115.349 397.551 116.79 399.128 118.712C397.138 118.997 395.765 119.193 394.098 119.518C393.637 119.646 393.47 119.645 392.99 119.302C391.255 117.166 389.833 115.373 388.41 113.58C388.08 113.75 387.749 113.92 387.418 114.089C387.546 115.274 387.675 116.459 387.803 117.644C386.118 116.198 383.487 115.041 382.94 113.248C381.726 109.272 379.775 107.573 375.578 107.456C374.065 107.414 371.622 105.466 371.317 104.025C370.492 100.123 368.248 99.3534 364.894 99.637C361.788 99.8998 358.676 100.091 355.185 100.479ZM384.461 79.4611C381.559 77.2952 377.012 76.8588 376.661 71.9323C376.635 71.5601 374.871 70.8552 374.234 71.1083C373.57 71.3722 372.927 72.5998 372.906 73.4225C372.781 78.2112 372.754 83.0078 372.919 87.7939C372.949 88.6758 373.848 89.8215 374.661 90.2632C375.09 90.4962 376.809 89.5754 376.907 88.9991C377.548 85.2223 379.906 83.5051 383.38 82.6228C383.967 82.4735 384.229 81.0409 384.461 79.4611ZM390.225 109.875C389.977 109.7 389.729 109.526 389.481 109.351C389.639 109.61 389.798 109.868 390.225 109.875ZM384.382 58.4155C384.63 58.5899 384.878 58.7644 385.126 58.9388C384.968 58.6805 384.809 58.4223 384.382 58.4155Z" fill="#5D1525"/>
<path d="M306.803 90.1763C306.549 91.1427 306.295 91.6405 305.922 92.3916C299.449 92.6447 293.095 92.6444 286.205 92.2977C284.199 89.453 282.637 88.3875 280.803 91.6449C274.402 94.6712 267.999 94.582 261.104 91.3235C259.557 90.7769 258.502 90.558 257.446 90.3391C257.899 91.1084 258.351 91.8778 258.803 92.6471C258.803 95.017 258.803 97.3869 258.429 100.263C253.921 102.643 251.565 100.94 251.15 96.81C250.851 93.8327 251.471 90.7744 251.46 87.753C251.453 85.878 251.034 84.0044 250.8 82.1301C249.074 82.8656 247.369 83.6544 245.615 84.3155C244.652 84.6787 243.57 85.129 242.607 85.0113C240.326 84.7327 238.083 84.1382 235.809 83.6574C235.792 83.6434 235.757 83.6194 235.532 83.3932C234.43 82.5822 233.553 81.9974 233.025 81.2055C235.832 80.7359 238.295 80.5156 240.746 80.2002C243.985 79.7834 246.628 78.6762 246.144 74.6565C245.702 70.9846 243.217 70.3513 240.047 70.5736C233.64 71.0228 227.226 71.3551 220.685 71.357C213.612 67.7261 206.788 70.6188 199.941 71.4805C199.485 71.5378 199.185 72.8259 198.429 73.6757C196.971 73.8316 195.896 73.8534 194.703 73.4876C192.81 72.6143 191.054 71.8239 189.255 71.708C185.783 71.4842 182.287 71.6413 178.801 71.6405C182.945 69.6567 188.193 70.4959 191.583 66.5502C194.685 62.9391 197.785 59.3174 201.074 55.8803C202.082 54.8269 203.726 54.3948 205.051 53.629C206.813 52.6101 209.758 51.8147 210.065 50.4456C210.959 46.4615 213.386 46.0669 216.74 45.2931C229.319 42.3907 241.88 45.2507 254.43 44.8227C258.697 44.6772 262.973 44.7831 267.239 44.6222C271.28 44.4697 274.169 45.3832 274.01 50.2832C273.962 51.7391 274.804 53.2298 274.729 54.6781C274.537 58.3709 275.414 60.7496 279.745 60.9957C281.179 61.0772 282.53 62.6167 283.659 63.3256C290.484 59.9256 297.487 60.4734 304.377 61.0694C305.312 61.1503 306.641 64.0883 306.691 65.7367C306.934 73.7207 306.802 81.7162 306.803 90.1763ZM284.51 80.6432L284.719 80.3704C284.719 80.3704 285.062 80.3822 285.871 80.4477C287.302 79.2366 289.986 77.953 289.921 76.8284C289.752 73.9112 288.466 71.0272 287.353 68.2388C287.225 67.9171 285.375 68.2824 283.684 68.067C276.226 61.6207 267.71 60.6656 259.245 65.3261C251.362 69.6664 250.911 77.736 258.328 82.8825C265.139 87.6084 272.378 87.2039 279.934 85.1063C283.378 86.7967 284.237 86.0365 284.51 80.6432Z" fill="#601825"/>
<path d="M162.643 29.4354C163.119 28.7846 163.584 28.543 164.315 28.2564C165.428 28.6382 166.339 29.5243 167.115 29.4186C172.778 28.6473 178.414 27.6768 184.533 27.0449C186.273 27.7616 187.538 28.2025 189.178 28.6437C190.303 28.6445 191.053 28.6451 191.803 28.6456C192.261 33.7926 192.756 38.9367 193.164 44.0877C193.408 47.1784 192.851 50.5143 193.841 53.3218C195.352 57.6101 193.296 58.4591 190.008 58.5856C185.865 58.7451 181.711 58.6146 177.563 58.6591C176.243 58.6733 174.841 58.6039 173.634 59.0244C172.668 59.3609 171.94 60.3815 171.107 61.0984C171.966 61.9366 172.721 62.9402 173.712 63.5697C174.862 64.2992 176.22 64.6999 178.207 65.5516C175.226 67.3729 173.106 68.6684 170.478 70.3056C168.581 70.6457 167.192 70.6441 165.566 70.4175C164.487 70.01 163.645 69.8275 162.387 69.6452C160.581 69.6457 159.192 69.6461 157.593 69.3322C155.688 68.5501 153.885 68.3058 152.328 67.5527C150.716 66.7731 148.251 65.6791 148.043 64.4131C146.766 56.6409 140.859 59.0488 136.259 58.6703C132.045 58.3235 129.129 59.7182 128.711 64.527C128.391 68.2137 125.313 67.937 122.987 67.5278C120.623 67.1119 116.387 65.0933 116.446 64.9119C119.112 56.7524 113.975 53.2175 108.056 50.0635C107.931 49.9967 107.883 49.7856 107.799 49.6419C111.033 45.3911 115.839 44.9603 120.592 44.1713C123.149 43.7468 125.551 42.4215 128.105 41.9303C136.269 40.3602 143.35 35.1693 152.372 35.7877C155.478 36.0005 161.074 34.9912 162.643 29.4354Z" fill="#5B1424"/>
<path d="M178.363 71.6416C182.287 71.6415 185.783 71.4844 189.255 71.7081C191.054 71.8241 192.81 72.6145 194.319 73.6436C183.649 75.2847 173.245 76.3824 162.52 77.3269C161.097 77.3827 159.996 77.5917 158.497 77.7464C156.006 77.9839 153.912 78.2758 151.535 78.399C149.802 78.453 148.352 78.6759 146.516 78.8609C144.357 79.0844 142.584 79.3457 140.646 79.4614C140.063 79.1862 139.645 79.0564 138.923 78.822C138.754 78.0709 138.804 76.8933 139.038 76.8555C145.54 75.8052 152.055 74.819 158.585 73.9571C160.012 73.7687 161.574 74.4072 162.958 74.1139C165.946 73.4806 168.858 72.49 171.801 71.6455C173.843 71.6446 175.884 71.6436 178.363 71.6416Z" fill="#5B1223"/>
<path d="M171.602 71.5137C168.858 72.4899 165.946 73.4805 162.958 74.1138C161.574 74.4071 160.012 73.7686 158.585 73.957C152.055 74.8189 145.54 75.8051 139.038 76.8554C138.804 76.8932 138.754 78.0708 138.822 79.0325C139.025 79.3477 138.863 79.7873 138.418 79.7381C135.595 79.6891 133.216 79.6892 130.825 79.3478C130.805 78.5505 130.798 78.0948 130.916 77.2843C131.867 76.5078 132.653 75.9621 133.525 75.6852C138.122 74.2252 142.721 72.7644 147.362 71.4534C149.062 70.9729 150.884 70.9343 152.641 70.6369C154.368 70.3446 156.083 69.9796 157.803 69.6465C159.192 69.6461 160.581 69.6457 162.458 69.9461C163.898 70.3788 164.851 70.5106 165.803 70.6425C167.192 70.6441 168.581 70.6457 170.387 70.6476C170.955 70.9327 171.155 71.1774 171.602 71.5137Z" fill="#601825"/>
<path d="M192.229 28.6453C191.053 28.645 190.303 28.6445 189.177 28.284C188.467 26.8303 188.134 25.7365 187.801 24.6427C188.895 24.3108 189.99 23.9789 191.681 23.8599C193.12 23.2638 193.962 22.4547 194.803 21.6457C197.912 20.7473 201.021 19.8489 204.465 18.801C206.912 19.0825 209.023 19.5135 211.469 19.7958C212.071 23.6575 210.569 25.5959 206.188 25.93C201.635 26.2771 197.163 27.6952 192.229 28.6453Z" fill="#5E1726"/>
<path d="M336.703 52.3107C332.722 52.7548 328.64 52.8645 324.181 52.8097C323.804 51.6484 323.542 50.5554 323.863 49.6754C324.475 47.9972 325.421 46.4406 326.228 44.8335C327.803 45.7647 329.441 46.6057 330.938 47.6495C332.885 49.0074 334.72 50.5265 336.703 52.3107Z" fill="#601825"/>
<path d="M282.403 20.2225C283.577 21.9889 284.932 23.4444 286.86 25.5142C284.184 25.376 281.242 25.825 278.925 24.8252C277.92 24.3915 277.779 20.9075 278.09 18.9428C278.233 18.0393 280.41 17.4579 281.665 16.7305C281.971 17.7908 282.278 18.8512 282.403 20.2225Z" fill="#601825"/>
<path d="M343.618 36.0564C345.644 41.4996 342.433 40.5511 339.661 40.1645C339.32 39.6752 338.978 39.1858 338.637 38.6965C340.184 37.775 341.732 36.8535 343.618 36.0564Z" fill="#601825"/>
<path d="M343.638 43.1264C344.647 42.8008 345.501 42.7294 346.354 42.658C346.275 43.1055 346.196 43.5531 346.117 44.0007C345.239 43.794 344.361 43.5873 343.638 43.1264Z" fill="#5D1525"/>
<path d="M383.458 49.5972C382.274 52.411 380.955 52.3529 379.828 49.0036C380.91 48.9455 382.014 49.2454 383.458 49.5972Z" fill="#601825"/>
<path d="M334.332 36.6657C333.552 36.1373 332.964 35.3795 332.376 34.6218C332.769 34.4162 333.162 34.2107 333.555 34.0051C333.878 34.8156 334.2 35.626 334.332 36.6657Z" fill="#601825"/>
<path d="M326.813 28.3079C326.715 28.3073 326.817 27.9917 326.817 27.9917C326.817 27.9917 326.912 28.3084 326.813 28.3079Z" fill="#5D1525"/>
<path d="M130.836 79.6893C133.216 79.6892 135.595 79.689 138.591 79.9028C139.743 79.9467 140.277 79.7768 140.812 79.6068C142.585 79.3455 144.357 79.0843 146.791 79.0497C148.907 79.0402 150.362 78.8039 151.818 78.5676C153.912 78.2757 156.006 77.9838 158.715 77.937C160.501 77.9481 161.671 77.714 162.841 77.4799C173.245 76.3822 183.649 75.2845 194.436 74.031C195.896 73.8534 196.971 73.8316 198.841 73.7634C206.695 73.0564 213.755 72.396 220.815 71.7356C227.226 71.3551 233.64 71.0228 240.047 70.5736C243.217 70.3513 245.702 70.9846 246.144 74.6565C246.628 78.6762 243.985 79.7834 240.746 80.2002C238.295 80.5156 235.832 80.7359 232.664 81.1486C231.239 81.4308 230.526 81.5629 229.389 81.6192C225.577 81.9488 222.191 82.3542 218.804 82.7597C216.392 82.8661 213.98 82.9725 210.933 83.1871C210.123 83.3527 209.948 83.4101 209.773 83.4675C197.961 84.4032 186.149 85.339 173.998 86.3922C172.658 86.5581 171.658 86.6066 170 86.6643C167.484 86.9086 165.625 87.1439 163.766 87.3791C163.285 87.1786 162.803 86.9781 161.939 86.3021C157.666 85.5511 153.774 85.2756 149.882 85.0002C149.839 85.8563 149.796 86.7125 149.753 87.5687C141.957 88.3605 134.161 89.1523 125.646 90.0585C124.216 90.2887 123.506 90.4044 122.796 90.5201C115.762 90.9108 108.729 91.3014 101.234 91.6114C98.6064 87.9172 102.463 89.0651 103.285 88.9031C106.787 88.2137 110.39 88.0338 113.956 87.6678C113.969 87.0124 113.982 86.357 113.995 85.7016C109.892 85.5065 105.685 84.6584 101.717 85.2951C97.5186 85.9685 93.5475 88.0555 89.4162 89.547C87.6774 85.6802 85.8046 81.5157 84.2502 76.9744C85.0644 76.5556 85.5603 76.5136 86.0562 76.4717C88.0619 79.1396 90.0677 81.8074 92.6107 84.5702C93.5614 84.5721 93.9748 84.4792 94.3882 84.3862C97.6259 83.8183 100.863 83.2505 104.713 82.9207C106.491 82.9323 107.658 82.7056 108.824 82.479C111.199 82.2134 113.574 81.9479 116.62 81.9321C118.135 81.967 118.979 81.752 119.823 81.537C120.347 81.3556 120.871 81.1742 122.023 80.8957C124.082 80.8159 125.514 80.8332 127.168 81.0387C128.571 80.9284 129.751 80.6299 130.916 80.1698C130.9 80.008 130.836 79.6893 130.836 79.6893Z" fill="#E1AB5D"/>
<path d="M157.593 69.3322C156.083 69.9796 154.368 70.3446 152.641 70.6369C150.884 70.9343 149.062 70.9729 147.362 71.4534C142.721 72.7644 138.122 74.2253 133.525 75.6852C132.653 75.9621 131.867 76.5078 130.564 77.3047C129.325 78.3938 128.563 79.1076 127.659 79.8868C127.518 79.9523 127.218 79.8645 126.906 79.6468C124.996 78.8356 123.398 78.2421 121.8 77.6487C115.36 77.6571 108.912 77.4825 102.483 77.7537C99.429 77.8826 96.3651 80.8177 93.4229 77.427C92.9948 76.9337 92.1486 76.6705 91.9482 76.1323C89.2184 68.7992 82.3206 67.0804 76.1477 64.5315C74.473 63.84 72.3299 64.0659 70.4262 64.2053C68.3956 64.354 66.394 64.8988 64.2454 64.4279C69.5355 59.7215 75.7684 60.5232 82.6115 61.8842C85.7714 63.0591 88.4689 63.6098 90.9016 64.7336C93.2264 65.8076 95.2757 67.4779 98.7776 69.7499C98.2068 67.159 98.1575 65.3533 97.4011 63.9211C96.5432 62.2969 95.052 61.0073 93.442 59.1069C96.0901 57.8913 98.1102 57.1939 99.8786 56.0924C101.967 54.7915 103.838 53.1413 105.803 51.6425C105.803 51.6425 105.803 51.1453 106.003 50.7643C106.453 50.1778 106.655 49.9323 106.807 49.6467C106.807 49.6467 107.303 49.6442 107.551 49.6431C107.883 49.7856 107.931 49.9968 108.056 50.0635C113.975 53.2175 119.112 56.7524 116.446 64.912C116.387 65.0933 120.623 67.1119 122.987 67.5278C125.313 67.937 128.391 68.2137 128.711 64.527C129.129 59.7182 132.045 58.3235 136.259 58.6703C140.859 59.0488 146.766 56.6409 148.043 64.4131C148.251 65.6792 150.716 66.7731 152.328 67.5527C153.885 68.3058 155.688 68.5502 157.593 69.3322Z" fill="#5C1525"/>
<path d="M105.367 51.6433C103.838 53.1412 101.967 54.7914 99.8786 56.0923C98.1102 57.1938 96.0901 57.8912 93.442 59.1069C95.052 61.0072 96.5432 62.2968 97.4011 63.921C98.1575 65.3532 98.2068 67.159 98.7776 69.7499C95.2757 67.4778 93.2264 65.8075 90.9016 64.7335C88.4689 63.6097 85.7714 63.059 82.9946 61.9499C85.5074 60.7084 86.3351 58.2223 87.9183 56.293C90.1998 53.5125 94.7907 52.3894 98.596 51.198C100.477 50.6091 102.805 51.4501 105.367 51.6433ZM90.2249 58.8746C89.9767 58.7001 89.7286 58.5256 89.4804 58.3511C89.6391 58.6095 89.7979 58.8679 90.2249 58.8746Z" fill="#5B1424"/>
<path d="M121.801 78.0205C123.398 78.242 124.996 78.8355 126.816 79.887C127.008 80.5135 126.977 80.682 126.946 80.8505C125.514 80.8332 124.082 80.8159 122.229 80.7116C121.806 79.8805 121.804 79.1365 121.801 78.0205Z" fill="#5B1223"/>
<path d="M86.0005 76.1371C85.5603 76.5138 85.0644 76.5558 84.1956 76.619C83.8227 76.6402 83.8055 76.6394 83.6711 76.3203C83.2604 74.9119 82.9841 73.8226 82.7078 72.7334C82.7078 72.7334 82.8359 72.6058 82.8991 72.541C83.9564 73.5849 84.9505 74.6936 86.0005 76.1371Z" fill="#C9AB66"/>
<path d="M108.511 82.3135C107.658 82.7057 106.491 82.9323 105.104 82.9697C105.988 82.5696 107.093 82.3587 108.511 82.3135Z" fill="#CE9F3F"/>
<path d="M119.597 81.3865C118.979 81.7521 118.135 81.9671 117.07 81.9907C117.689 81.6114 118.53 81.4236 119.597 81.3865Z" fill="#CE9F3F"/>
<path d="M94.4146 84.1376C93.9748 84.4792 93.5614 84.5722 92.9217 84.6358C93.2773 84.3673 93.8591 84.1281 94.4146 84.1376Z" fill="#CE9F3F"/>
<path d="M106.606 49.7769C106.655 49.9322 106.453 50.1777 106.003 50.5156C105.952 50.3589 106.152 50.1119 106.606 49.7769Z" fill="#5B1424"/>
<path d="M82.3459 72.6414C82.9841 73.8226 83.2604 74.9119 83.6681 76.3141C79.4436 76.8177 76.6412 74.1392 73.847 70.9692C76.5014 71.2854 79.2426 71.9175 82.3459 72.6414Z" fill="#E1AB5D"/>
<path d="M244.774 4.05502C248.885 3.6764 252.921 3.66167 257.38 3.646C259.306 6.24409 258.633 8.60741 255.804 8.92046C252.306 9.30744 248.673 8.70315 245.146 8.20001C244.823 8.15399 244.839 5.73565 244.774 4.05502Z" fill="#5C1324"/>
<path d="M387.979 117.843C387.675 116.459 387.546 115.274 387.418 114.089C387.749 113.92 388.079 113.75 388.41 113.58C389.833 115.373 391.255 117.166 392.74 119.301C391.145 120.176 389.486 120.708 387.478 121.353C387.753 120.009 387.953 119.025 387.979 117.843Z" fill="#5C1525"/>
<path d="M150.103 87.6498C149.796 86.7126 149.839 85.8564 149.882 85.0002C153.774 85.2757 157.666 85.5512 161.71 86.1726C158.059 86.9226 154.256 87.3267 150.103 87.6498Z" fill="#DEAA4E"/>
<path d="M163.875 87.7557C165.625 87.144 167.484 86.9088 169.651 86.8158C168.618 90.6594 166.494 90.3781 163.875 87.7557Z" fill="#5B1223"/>
<path d="M122.871 90.837C123.506 90.4045 124.216 90.2887 125.283 90.2484C125.592 91.0097 125.546 91.6957 125.5 92.3816C124.648 91.9723 123.797 91.563 122.871 90.837Z" fill="#5D1525"/>
<path d="M79.7835 109.663C79.466 109.499 79.1626 109.321 78.8591 109.143C79.0978 109.202 79.3365 109.261 79.698 109.468C79.8209 109.617 79.7976 109.649 79.7835 109.663Z" fill="#5D1525"/>
<path d="M187.525 24.7729C188.134 25.7366 188.467 26.8303 188.802 28.2838C187.538 28.2026 186.273 27.7616 184.905 26.9833C185.619 26.065 186.434 25.4841 187.525 24.7729Z" fill="#5C1525"/>
<path d="M194.489 21.6909C193.962 22.4549 193.12 23.2639 192.041 23.8587C192.594 23.0083 193.385 22.3722 194.489 21.6909Z" fill="#5C1525"/>
<path d="M235.825 83.6715C238.083 84.1383 240.326 84.7328 242.607 85.0114C243.57 85.1291 244.652 84.6788 245.615 84.3156C247.369 83.6546 249.074 82.8657 250.8 82.1302C251.034 84.0045 251.453 85.8781 251.46 87.7532C251.471 90.7746 250.851 93.8329 251.15 96.8101C251.565 100.94 253.92 102.643 258.429 100.707C259.105 107.688 259.754 114.74 259.56 121.769C259.465 125.206 256.441 126.827 253.018 126.147C248.963 125.342 245.837 125.053 243.73 129.959C242.926 131.829 239.034 132.373 235.861 133.402C232.383 133.07 229.593 132.858 226.803 132.645C224.711 130.242 222.263 128.055 220.639 125.37C219.321 123.189 218.07 120.274 218.417 117.925C219.142 113.018 219.102 109.512 213.134 108.274C211.758 107.989 210.209 105.266 209.963 103.495C209.466 99.9172 209.808 96.2233 209.803 92.1115C210.279 91.3397 210.755 91.0339 211.518 90.6863C213.845 90.6442 215.885 90.6439 218.801 90.6441C222.655 91.2039 225.625 92.1234 228.612 92.1816C230.286 92.2142 232.558 91.2534 233.538 89.9634C234.827 88.266 235.11 85.8045 235.825 83.6715Z" fill="#5D1525"/>
<path d="M226.803 133.079C229.593 132.858 232.383 133.07 235.488 133.464C236.32 138.011 234.534 140.309 230.008 140.746C228.705 140.872 227.528 142.293 225.639 143.382C222.538 143.442 219.487 144.481 218.803 140.645C223.031 140.019 228.117 140.354 226.803 133.079Z" fill="#601825"/>
<path d="M218.52 140.408C219.487 144.481 222.538 143.442 225.394 143.645C223.673 147.07 215.238 148.072 212.962 145.015C212.313 144.142 212.168 141.645 212.411 141.554C214.267 140.862 216.276 140.581 218.52 140.408Z" fill="#5D1525"/>
<path d="M281.087 91.8825C282.637 88.3876 284.199 89.4531 285.737 92.2976C284.326 92.4692 282.848 92.2946 281.087 91.8825Z" fill="#5D1525"/>
<path d="M259.091 92.6048C258.351 91.8779 257.899 91.1086 257.446 90.3392C258.502 90.5582 259.557 90.7771 260.709 91.3204C260.329 91.9506 259.853 92.2565 259.091 92.6048Z" fill="#5D1525"/>
<path d="M235.809 83.6575C235.11 85.8045 234.827 88.2659 233.538 89.9634C232.558 91.2534 230.286 92.2142 228.612 92.1815C225.625 92.1233 222.655 91.2039 219.238 90.6441C218.841 88.2566 218.883 85.8694 218.865 83.121C222.191 82.3543 225.577 81.9489 229.509 81.9662C231.955 82.7992 233.856 83.2093 235.757 83.6194C235.757 83.6194 235.792 83.6435 235.809 83.6575Z" fill="#601825"/>
<path d="M186.312 88.1604C186.337 88.1503 186.288 88.1705 186.312 88.1604Z" fill="#601825"/>
<path d="M209.882 83.6204C209.948 83.4102 210.123 83.3528 210.57 83.3455C210.559 83.5214 210.275 83.6473 209.882 83.6204Z" fill="#601825"/>
<path d="M384.551 79.8312C384.229 81.0409 383.967 82.4736 383.38 82.6228C379.906 83.5051 377.548 85.2223 376.907 88.9991C376.809 89.5754 375.09 90.4962 374.661 90.2632C373.848 89.8215 372.949 88.6759 372.919 87.7939C372.754 83.0078 372.781 78.2112 372.906 73.4225C372.927 72.5998 373.57 71.3722 374.234 71.1083C374.871 70.8552 376.635 71.5601 376.661 71.9323C377.012 76.8588 381.559 77.2953 384.551 79.8312Z" fill="#5C1525"/>
<path d="M390.091 110C389.798 109.868 389.639 109.61 389.48 109.351C389.729 109.526 389.977 109.7 390.091 110Z" fill="#601825"/>
<path d="M384.516 58.2898C384.809 58.4223 384.968 58.6806 385.126 58.9388C384.878 58.7644 384.63 58.59 384.516 58.2898Z" fill="#601825"/>
<path d="M279.758 84.4191C272.378 87.204 265.139 87.6084 258.328 82.8825C250.911 77.736 251.362 69.6665 259.245 65.3261C267.709 60.6656 276.226 61.6207 284.09 68.5263C287.278 72.6555 286.496 76.5027 285.062 80.3822L284.719 80.3704C284.719 80.3704 284.51 80.6432 284.219 80.8756C282.539 82.2117 281.149 83.3154 279.758 84.4191ZM259.537 68.6531C255.048 73.8479 254.892 77.8302 259.705 81.2165C261.72 82.6338 264.8 82.4271 267.186 83.4477C272.911 85.8966 277.626 84.1859 281.723 80.1851C286.264 75.7517 284.815 70.217 279.023 67.4945C272.494 64.4258 266.372 66.246 259.537 68.6531Z" fill="#C9AB66"/>
<path d="M220.685 71.3571C213.755 72.396 206.695 73.0564 199.224 73.6292C199.185 72.8259 199.485 71.5378 199.941 71.4805C206.788 70.6188 213.612 67.7261 220.685 71.3571Z" fill="#5B1223"/>
<path d="M285.467 80.415C286.496 76.5027 287.278 72.6556 284.41 68.6575C285.375 68.2825 287.225 67.9172 287.353 68.2389C288.466 71.0273 289.752 73.9113 289.921 76.8285C289.986 77.9531 287.302 79.2367 285.467 80.415Z" fill="#5B1223"/>
<path d="M279.846 84.7628C281.149 83.3155 282.539 82.2118 284.265 81.041C284.237 86.0367 283.378 86.7968 279.846 84.7628Z" fill="#5B1223"/>
<path d="M235.532 83.3933C233.856 83.2094 231.955 82.7992 229.934 82.0421C230.526 81.5631 231.239 81.431 232.314 81.3558C233.553 81.9975 234.43 82.5823 235.532 83.3933Z" fill="#5D1525"/>
<path d="M243.313 82.1608C243.337 82.1506 243.289 82.1709 243.313 82.1608Z" fill="#5D1525"/>
<path d="M165.566 70.4175C164.851 70.5107 163.898 70.3788 162.874 69.946C163.645 69.8275 164.487 70.01 165.566 70.4175Z" fill="#5C1525"/>
<path d="M151.535 78.3989C150.362 78.804 148.907 79.0403 147.176 79.0876C148.352 78.6758 149.802 78.453 151.535 78.3989Z" fill="#CE9F3F"/>
<path d="M162.52 77.3269C161.671 77.7142 160.501 77.9483 159.113 77.9916C159.996 77.5918 161.097 77.3827 162.52 77.3269Z" fill="#CE9F3F"/>
<path d="M140.646 79.4613C140.277 79.7768 139.743 79.9468 139.035 79.952C138.863 79.7873 139.025 79.3477 139.126 79.1372C139.645 79.0563 140.063 79.1861 140.646 79.4613Z" fill="#CE9F3F"/>
<path d="M127.801 79.8215C128.563 79.1077 129.325 78.3939 130.439 77.6597C130.798 78.0949 130.805 78.5507 130.824 79.348C130.836 79.6895 130.9 80.0083 130.536 80.0547C129.381 80.0079 128.591 79.9147 127.801 79.8215Z" fill="#5B1223"/>
<path d="M127.659 79.8868C128.591 79.9146 129.381 80.0078 130.552 80.2163C129.751 80.63 128.571 80.9285 127.168 81.0388C126.977 80.6821 127.008 80.5136 127.128 80.1048C127.218 79.8646 127.518 79.9523 127.659 79.8868Z" fill="#CE9F3F"/>
<path d="M90.0907 59.0004C89.7979 58.8679 89.6391 58.6095 89.4804 58.3511C89.7286 58.5256 89.9767 58.7001 90.0907 59.0004Z" fill="#5C1525"/>
<path d="M259.842 68.4142C266.372 66.2461 272.494 64.4259 279.023 67.4946C284.815 70.2172 286.264 75.7518 281.723 80.1852C277.626 84.186 272.911 85.8967 267.186 83.4478C264.8 82.4272 261.72 82.6339 259.705 81.2166C254.892 77.8304 255.048 73.848 259.842 68.4142Z" fill="#DEAA4E"/>
</svg>
